<svg xmlns="http://www.w3.org/2000/svg" xmlns:xlink="http://www.w3.org/1999/xlink" width="250" zoomAndPan="magnify" viewBox="0 0 187.5 187.499992" height="250" preserveAspectRatio="xMidYMid meet" version="1.0"><defs><clipPath id="7a11a6084c"><path d="M 61 0 L 133 0 L 133 40 L 61 40 Z M 61 0 " clip-rule="nonzero"/></clipPath><clipPath id="7404708b4c"><path d="M 41.535156 0.925781 L 94.425781 -51.964844 L 145.730469 -0.660156 L 92.839844 52.230469 Z M 41.535156 0.925781 " clip-rule="nonzero"/></clipPath><clipPath id="a09eb8f514"><path d="M 41.535156 0.925781 L 94.425781 -51.964844 L 145.730469 -0.660156 L 92.839844 52.230469 Z M 41.535156 0.925781 " clip-rule="nonzero"/></clipPath><clipPath id="fe3037899c"><path d="M 0 60 L 40 60 L 40 134 L 0 134 Z M 0 60 " clip-rule="nonzero"/></clipPath><clipPath id="240b5b0787"><path d="M -51.964844 94.425781 L 0.925781 41.535156 L 52.230469 92.839844 L -0.660156 145.730469 Z M -51.964844 94.425781 " clip-rule="nonzero"/></clipPath><clipPath id="43965d3283"><path d="M -51.964844 94.425781 L 0.925781 41.535156 L 52.230469 92.839844 L -0.660156 145.730469 Z M -51.964844 94.425781 " clip-rule="nonzero"/></clipPath><clipPath id="09ddd5fea9"><path d="M 61 154 L 133 154 L 133 187 L 61 187 Z M 61 154 " clip-rule="nonzero"/></clipPath><clipPath id="6db400dca0"><path d="M 41.535156 187.925781 L 94.425781 135.035156 L 145.730469 186.339844 L 92.839844 239.230469 Z M 41.535156 187.925781 " clip-rule="nonzero"/></clipPath><clipPath id="2cc6bb7281"><path d="M 41.535156 187.925781 L 94.425781 135.035156 L 145.730469 186.339844 L 92.839844 239.230469 Z M 41.535156 187.925781 " clip-rule="nonzero"/></clipPath><clipPath id="a5cfc17337"><path d="M 154 60 L 187 60 L 187 134 L 154 134 Z M 154 60 " clip-rule="nonzero"/></clipPath><clipPath id="d81f006f53"><path d="M 135.035156 94.425781 L 187.925781 41.535156 L 239.230469 92.839844 L 186.339844 145.730469 Z M 135.035156 94.425781 " clip-rule="nonzero"/></clipPath><clipPath id="5794ff4b76"><path d="M 135.035156 94.425781 L 187.925781 41.535156 L 239.230469 92.839844 L 186.339844 145.730469 Z M 135.035156 94.425781 " clip-rule="nonzero"/></clipPath></defs><g clip-path="url(#7a11a6084c)"><g clip-path="url(#7404708b4c)"><g clip-path="url(#a09eb8f514)"><path fill="#ffffff" d="M 105.785156 -31.296875 C 100.65625 -28.320312 93.734375 -21.621094 93.734375 -21.621094 C 92.53125 -20.785156 92.21875 -19.914062 89.59375 -20.960938 C 86.972656 -22.007812 81.644531 -24.5625 73.960938 -25.675781 C 70.441406 -25.929688 66.6875 -24.226562 67.128906 -18.84375 C 67.515625 -14.390625 71.855469 -3.222656 71.855469 -3.222656 C 72.28125 -1.816406 73.128906 -1.722656 71.195312 0.914062 C 69.261719 3.554688 64.828125 8.84375 61.878906 14.324219 C 59.496094 18.273438 62.570312 21.898438 66.261719 22.929688 C 69.972656 23.964844 82.59375 23.277344 82.59375 23.277344 C 84.066406 23.3125 85.4375 24.007812 86.324219 25.175781 C 86.324219 25.175781 93.023438 36.125 96.203125 38.179688 C 99.382812 40.234375 102.886719 40.304688 105.738281 36.664062 C 108.585938 33.027344 111.113281 21.257812 111.113281 21.257812 C 111.597656 19.871094 112.6875 18.78125 114.074219 18.292969 C 114.074219 18.292969 124.847656 15.445312 129.496094 12.917969 C 134.140625 10.398438 132.796875 5.4375 131.011719 3.382812 C 126.761719 -0.585938 118.007812 -6.496094 118.007812 -6.496094 C 116.839844 -7.382812 115.757812 -7.972656 116.109375 -10.222656 C 116.453125 -12.480469 116.917969 -20.304688 115.757812 -26.546875 C 114.839844 -31.488281 110.914062 -34.273438 105.785156 -31.296875 Z M 105.785156 -31.296875 " fill-opacity="1" fill-rule="nonzero"/></g></g></g><g clip-path="url(#fe3037899c)"><g clip-path="url(#240b5b0787)"><g clip-path="url(#43965d3283)"><path fill="#ffffff" d="M 12.285156 62.203125 C 7.15625 65.179688 0.230469 71.878906 0.230469 71.878906 C -0.972656 72.714844 -1.28125 73.589844 -3.90625 72.539062 C -6.53125 71.492188 -11.855469 68.9375 -19.539062 67.824219 C -23.058594 67.570312 -26.816406 69.273438 -26.371094 74.65625 C -25.984375 79.113281 -21.644531 90.277344 -21.644531 90.277344 C -21.222656 91.683594 -20.371094 91.777344 -22.304688 94.414062 C -24.238281 97.054688 -28.671875 102.34375 -31.621094 107.828125 C -34.007812 111.773438 -30.929688 115.398438 -27.238281 116.433594 C -23.527344 117.464844 -10.90625 116.777344 -10.90625 116.777344 C -9.4375 116.8125 -8.0625 117.507812 -7.175781 118.675781 C -7.175781 118.675781 -0.476562 129.625 2.703125 131.679688 C 5.882812 133.734375 9.386719 133.804688 12.234375 130.167969 C 15.085938 126.527344 17.613281 114.757812 17.613281 114.757812 C 18.097656 113.371094 19.1875 112.28125 20.574219 111.792969 C 20.574219 111.792969 31.347656 108.945312 35.996094 106.417969 C 40.640625 103.898438 39.296875 98.941406 37.511719 96.886719 C 33.261719 92.917969 24.507812 87.007812 24.507812 87.007812 C 23.339844 86.121094 22.253906 85.527344 22.605469 83.277344 C 22.953125 81.019531 23.417969 73.195312 22.253906 66.953125 C 21.339844 62.011719 17.414062 59.226562 12.285156 62.203125 Z M 12.285156 62.203125 " fill-opacity="1" fill-rule="nonzero"/></g></g></g><g clip-path="url(#09ddd5fea9)"><g clip-path="url(#6db400dca0)"><g clip-path="url(#2cc6bb7281)"><path fill="#ffffff" d="M 105.785156 155.703125 C 100.65625 158.679688 93.734375 165.378906 93.734375 165.378906 C 92.53125 166.214844 92.21875 167.089844 89.59375 166.039062 C 86.972656 164.992188 81.644531 162.4375 73.960938 161.324219 C 70.441406 161.074219 66.6875 162.777344 67.128906 168.160156 C 67.515625 172.613281 71.855469 183.777344 71.855469 183.777344 C 72.28125 185.1875 73.128906 185.277344 71.195312 187.917969 C 69.261719 190.554688 64.828125 195.847656 61.878906 201.328125 C 59.496094 205.273438 62.570312 208.898438 66.261719 209.933594 C 69.972656 210.964844 82.59375 210.277344 82.59375 210.277344 C 84.066406 210.3125 85.4375 211.007812 86.324219 212.175781 C 86.324219 212.175781 93.023438 223.125 96.203125 225.179688 C 99.382812 227.234375 102.886719 227.304688 105.738281 223.667969 C 108.585938 220.03125 111.113281 208.257812 111.113281 208.257812 C 111.597656 206.871094 112.6875 205.78125 114.074219 205.296875 C 114.074219 205.296875 124.847656 202.445312 129.496094 199.917969 C 134.140625 197.402344 132.796875 192.441406 131.011719 190.386719 C 126.761719 186.417969 118.007812 180.507812 118.007812 180.507812 C 116.839844 179.621094 115.757812 179.027344 116.109375 176.777344 C 116.453125 174.519531 116.917969 166.695312 115.757812 160.453125 C 114.839844 155.515625 110.914062 152.726562 105.785156 155.703125 Z M 105.785156 155.703125 " fill-opacity="1" fill-rule="nonzero"/></g></g></g><g clip-path="url(#a5cfc17337)"><g clip-path="url(#d81f006f53)"><g clip-path="url(#5794ff4b76)"><path fill="#ffffff" d="M 199.285156 62.203125 C 194.15625 65.179688 187.234375 71.878906 187.234375 71.878906 C 186.03125 72.714844 185.722656 73.589844 183.097656 72.539062 C 180.472656 71.492188 175.144531 68.9375 167.460938 67.824219 C 163.945312 67.570312 160.1875 69.273438 160.628906 74.65625 C 161.015625 79.113281 165.359375 90.277344 165.359375 90.277344 C 165.78125 91.683594 166.632812 91.777344 164.695312 94.414062 C 162.761719 97.054688 158.328125 102.34375 155.378906 107.828125 C 152.996094 111.773438 156.070312 115.398438 159.765625 116.433594 C 163.472656 117.464844 176.09375 116.777344 176.09375 116.777344 C 177.566406 116.8125 178.9375 117.507812 179.824219 118.675781 C 179.824219 118.675781 186.523438 129.625 189.703125 131.679688 C 192.882812 133.734375 196.386719 133.804688 199.238281 130.167969 C 202.085938 126.527344 204.613281 114.757812 204.613281 114.757812 C 205.097656 113.371094 206.1875 112.28125 207.574219 111.792969 C 207.574219 111.792969 218.347656 108.945312 223 106.417969 C 227.640625 103.898438 226.296875 98.941406 224.511719 96.886719 C 220.261719 92.917969 211.507812 87.007812 211.507812 87.007812 C 210.339844 86.121094 209.257812 85.527344 209.609375 83.277344 C 209.953125 81.019531 210.417969 73.195312 209.257812 66.953125 C 208.34375 62.011719 204.414062 59.226562 199.285156 62.203125 Z M 199.285156 62.203125 " fill-opacity="1" fill-rule="nonzero"/></g></g></g></svg>